<?xml version="1.0" encoding="UTF-8"?>
<svg xmlns="http://www.w3.org/2000/svg" width="800" height="600" viewBox="0 0 800 600">
  <rect width="800" height="600" fill="#F0F4FF"/>
  
  <rect x="0" y="0" width="800" height="600" fill="#F3E5F5"/>
  <!-- ground -->
  <rect x="0" y="470" width="800" height="130" fill="#CE93D8" opacity="0.4"/>
  <!-- body -->
  <rect x="330" y="340" width="110" height="130" rx="14" fill="#7B1FA2"/>
  <!-- head -->
  <circle cx="385" cy="295" r="58" fill="#FFB74D"/>
  <!-- thinking expression - eyes looking up-right -->
  <circle cx="367" cy="282" r="11" fill="white"/>
  <circle cx="403" cy="282" r="11" fill="white"/>
  <circle cx="370" cy="278" r="5" fill="#4A148C"/>
  <circle cx="406" cy="278" r="5" fill="#4A148C"/>
  <!-- eyebrow raised on one side -->
  <path d="M 357 264 Q 370 255 382 262" stroke="#795548" stroke-width="5" fill="none"/>
  <path d="M 393 263 Q 405 260 417 266" stroke="#795548" stroke-width="4" fill="none"/>
  <!-- thoughtful smile / neutral -->
  <path d="M 367 316 Q 385 325 403 316" stroke="#795548" stroke-width="4" fill="none"/>
  <!-- arm tapping chin -->
  <rect x="280" y="380" width="120" height="22" rx="11" fill="#7B1FA2" transform="rotate(-55,340,391)"/>
  <circle cx="295" cy="335" r="22" fill="#FFB74D"/>
  <!-- finger pointing to chin -->
  <rect x="295" y="310" width="16" height="40" rx="8" fill="#FFB74D" transform="rotate(15,303,330)"/>
  <!-- other arm hanging -->
  <rect x="440" y="360" width="80" height="22" rx="11" fill="#7B1FA2"/>
  <!-- legs -->
  <rect x="338" y="462" width="32" height="14" rx="6" fill="#6A1B9A"/>
  <rect x="390" y="462" width="32" height="14" rx="6" fill="#6A1B9A"/>
  <rect x="326" y="472" width="50" height="14" rx="7" fill="#212121"/>
  <rect x="382" y="472" width="50" height="14" rx="7" fill="#212121"/>
  <!-- floating numbers around character -->
  <text x="520" y="160" font-family="Arial Black,Courier,monospace" font-size="48" fill="#E91E63" transform="rotate(12,520,160)">7</text>
  <text x="580" y="240" font-family="Arial Black,Courier,monospace" font-size="36" fill="#3F51B5" transform="rotate(-8,580,240)">3.14</text>
  <text x="140" y="200" font-family="Arial Black,Courier,monospace" font-size="40" fill="#FF5722" transform="rotate(-15,140,200)">42</text>
  <text x="160" y="320" font-family="Arial Black,Courier,monospace" font-size="30" fill="#009688" transform="rotate(10,160,320)">$$$</text>
  <text x="590" y="340" font-family="Arial Black,Courier,monospace" font-size="44" fill="#9C27B0" transform="rotate(20,590,340)">%</text>
  <text x="90"  y="140" font-family="Arial Black,Courier,monospace" font-size="32" fill="#F44336" transform="rotate(-20,90,140)">100</text>
  <text x="610" y="120" font-family="Arial Black,Courier,monospace" font-size="36" fill="#2196F3" transform="rotate(5,610,120)">∑</text>
  <!-- thought bubble dots -->
  <circle cx="430" cy="220" r="8"  fill="#9C27B0" opacity="0.6"/>
  <circle cx="455" cy="195" r="12" fill="#9C27B0" opacity="0.7"/>
  <circle cx="485" cy="168" r="16" fill="#9C27B0" opacity="0.8"/>
  <rect x="0" y="550" width="800" height="50" fill="#4A148C" opacity="0.9"/>
  <text x="400" y="582" font-family="Arial,sans-serif" font-size="22" fill="white" text-anchor="middle" font-weight="bold">0:48-0:51 · DEEP IN THOUGHT</text>

</svg>