<?xml version="1.0" encoding="UTF-8"?>
<svg xmlns="http://www.w3.org/2000/svg" width="800" height="600" viewBox="0 0 800 600">
  <rect width="800" height="600" fill="#F0F4FF"/>
  
  <rect x="0" y="0" width="800" height="600" fill="#FFF9C4"/>
  <!-- sun -->
  <circle cx="680" cy="100" r="70" fill="#FFD600"/>
  <line x1="680" y1="10" x2="680" y2="0"  stroke="#FFD600" stroke-width="8"/>
  <line x1="680" y1="200" x2="680" y2="210" stroke="#FFD600" stroke-width="8"/>
  <line x1="590" y1="100" x2="580" y2="100" stroke="#FFD600" stroke-width="8"/>
  <line x1="770" y1="100" x2="780" y2="100" stroke="#FFD600" stroke-width="8"/>
  <line x1="617" y1="37" x2="610" y2="30" stroke="#FFD600" stroke-width="8"/>
  <line x1="743" y1="163" x2="750" y2="170" stroke="#FFD600" stroke-width="8"/>
  <line x1="743" y1="37" x2="750" y2="30" stroke="#FFD600" stroke-width="8"/>
  <line x1="617" y1="163" x2="610" y2="170" stroke="#FFD600" stroke-width="8"/>
  <!-- money pile -->
  <ellipse cx="400" cy="480" rx="280" ry="60" fill="#388E3C"/>
  <ellipse cx="340" cy="450" rx="90" ry="25" fill="#43A047"/>
  <ellipse cx="480" cy="445" rx="100" ry="22" fill="#2E7D32"/>
  <ellipse cx="390" cy="430" rx="110" ry="20" fill="#66BB6A"/>
  <!-- bills scattered -->
  <rect x="160" y="440" width="80" height="40" rx="5" fill="#4CAF50" transform="rotate(-15,200,460)"/>
  <text x="200" y="465" font-family="Arial Black,sans-serif" font-size="18" fill="#1B5E20" text-anchor="middle" transform="rotate(-15,200,465)">$100</text>
  <rect x="560" y="440" width="80" height="40" rx="5" fill="#4CAF50" transform="rotate(10,600,460)"/>
  <text x="600" y="465" font-family="Arial Black,sans-serif" font-size="18" fill="#1B5E20" text-anchor="middle" transform="rotate(10,600,465)">$100</text>
  <rect x="350" y="420" width="80" height="38" rx="5" fill="#81C784"/>
  <text x="390" y="445" font-family="Arial Black,sans-serif" font-size="18" fill="#1B5E20" text-anchor="middle">$100</text>
  <!-- person lying back -->
  <rect x="250" y="350" width="300" height="80" rx="35" fill="#1565C0"/>
  <!-- head -->
  <circle cx="560" cy="360" r="55" fill="#FFB74D"/>
  <!-- sunglasses -->
  <rect x="520" y="345" width="90" height="28" rx="6" fill="#212121"/>
  <circle cx="537" cy="358" r="16" fill="#1A237E" opacity="0.8"/>
  <circle cx="573" cy="358" r="16" fill="#1A237E" opacity="0.8"/>
  <line x1="505" y1="358" x2="520" y2="358" stroke="#212121" stroke-width="6"/>
  <line x1="610" y1="358" x2="625" y2="358" stroke="#212121" stroke-width="6"/>
  <!-- smile -->
  <path d="M 538 388 Q 557 402 576 388" stroke="#795548" stroke-width="5" fill="none" stroke-linecap="round"/>
  <!-- arms out relaxed -->
  <rect x="210" y="355" width="80" height="22" rx="11" fill="#1565C0" transform="rotate(25,250,366)"/>
  <rect x="510" y="370" width="80" height="22" rx="11" fill="#1565C0"/>
  <!-- legs up -->
  <rect x="180" y="390" width="90" height="22" rx="11" fill="#0D47A1" transform="rotate(-20,225,400)"/>
  <rect x="250" y="400" width="90" height="22" rx="11" fill="#0D47A1" transform="rotate(-10,295,410)"/>
  <rect x="0" y="550" width="800" height="50" fill="#1A237E" opacity="0.85"/>
  <text x="400" y="582" font-family="Arial,sans-serif" font-size="22" fill="white" text-anchor="middle" font-weight="bold">0:18-0:21 · RELAXING ON MONEY</text>

</svg>