<?xml version="1.0" encoding="UTF-8"?>
<svg xmlns="http://www.w3.org/2000/svg" width="800" height="600" viewBox="0 0 800 600">
  <rect width="800" height="600" fill="#F0F4FF"/>
  
  <rect x="0" y="0" width="800" height="600" fill="#E8F5E9"/>
  <!-- piggy bank / slot machine box -->
  <rect x="200" y="280" width="400" height="260" rx="30" fill="#42A5F5" stroke="#1565C0" stroke-width="8"/>
  <!-- slot opening -->
  <rect x="310" y="290" width="180" height="24" rx="12" fill="#0D47A1"/>
  <!-- details on box -->
  <circle cx="400" cy="420" r="60" fill="#1E88E5"/>
  <circle cx="400" cy="420" r="45" fill="#1565C0"/>
  <text x="400" y="435" font-family="Arial Black,sans-serif" font-size="36" fill="#FFD600" text-anchor="middle">$</text>
  <!-- decorative lines -->
  <rect x="230" y="350" width="80" height="10" rx="5" fill="#1E88E5"/>
  <rect x="490" y="350" width="80" height="10" rx="5" fill="#1E88E5"/>
  <rect x="230" y="370" width="80" height="10" rx="5" fill="#1E88E5"/>
  <rect x="490" y="370" width="80" height="10" rx="5" fill="#1E88E5"/>
  <!-- dollar bill being dropped -->
  <rect x="330" y="180" width="140" height="70" rx="6" fill="#4CAF50" stroke="#2E7D32" stroke-width="4" transform="rotate(-8,400,215)"/>
  <text x="400" y="222" font-family="Arial Black,sans-serif" font-size="24" fill="#1B5E20" text-anchor="middle" transform="rotate(-8,400,222)">$100</text>
  <ellipse cx="365" cy="215" rx="16" ry="10" fill="#81C784" opacity="0.7" transform="rotate(-8,365,215)"/>
  <!-- hand holding bill -->
  <ellipse cx="400" cy="150" rx="55" ry="35" fill="#FFB74D"/>
  <!-- fingers -->
  <rect x="348" y="120" width="18" height="50" rx="9" fill="#FFB74D"/>
  <rect x="372" y="110" width="18" height="55" rx="9" fill="#FFB74D"/>
  <rect x="396" y="108" width="18" height="55" rx="9" fill="#FFB74D"/>
  <rect x="420" y="112" width="18" height="52" rx="9" fill="#FFB74D"/>
  <rect x="443" y="120" width="15" height="44" rx="7" fill="#FFB74D"/>
  <!-- arm -->
  <rect x="360" y="140" width="80" height="100" rx="20" fill="#FFB74D"/>
  <!-- motion arrow -->
  <line x1="490" y1="200" x2="490" y2="280" stroke="#1565C0" stroke-width="6" stroke-dasharray="12,8"/>
  <polygon points="490,290 480,265 500,265" fill="#1565C0"/>
  <rect x="0" y="550" width="800" height="50" fill="#1A237E" opacity="0.85"/>
  <text x="400" y="582" font-family="Arial,sans-serif" font-size="22" fill="white" text-anchor="middle" font-weight="bold">0:27-0:30 · DEPOSIT</text>

</svg>