<?xml version="1.0" encoding="UTF-8"?>
<svg xmlns="http://www.w3.org/2000/svg" width="800" height="600" viewBox="0 0 800 600">
  <rect width="800" height="600" fill="#F0F4FF"/>
  
  <rect x="0" y="490" width="800" height="110" fill="#4CAF50"/>
  <!-- tilted pole (rotated) -->
  <line x1="400" y1="140" x2="400" y2="430" stroke="#546E7A" stroke-width="20"/>
  <circle cx="400" cy="140" r="22" fill="#37474F"/>
  <rect x="300" y="445" width="200" height="24" rx="8" fill="#37474F"/>
  <!-- tilted arms - left crashes down, right up -->
  <line x1="130" y1="280" x2="660" y2="180" stroke="#78909C" stroke-width="18" stroke-linecap="round"/>
  <!-- left pan crashed low with huge weight -->
  <ellipse cx="180" cy="400" rx="90" ry="20" fill="#78909C"/>
  <rect x="90" y="288" width="6" height="112" fill="#B0BEC5"/>
  <rect x="264" y="230" width="6" height="172" fill="#B0BEC5"/>
  <!-- huge weight block -->
  <rect x="110" y="330" width="140" height="70" rx="8" fill="#B71C1C"/>
  <text x="180" y="375" font-family="Arial Black,sans-serif" font-size="32" fill="white" text-anchor="middle">100x</text>
  <!-- right pan up high with small house -->
  <ellipse cx="630" cy="160" rx="70" ry="15" fill="#90A4AE"/>
  <rect x="568" y="186" width="5" height="0" fill="#B0BEC5"/>
  <!-- small house on right pan -->
  <rect x="595" y="100" width="70" height="60" rx="4" fill="#EF5350"/>
  <polygon points="595,100 630,65 665,100" fill="#C62828"/>
  <!-- impact lines on left -->
  <line x1="80" y1="430" x2="30" y2="500" stroke="#F44336" stroke-width="6" stroke-linecap="round"/>
  <line x1="110" y1="445" x2="70" y2="520" stroke="#F44336" stroke-width="6" stroke-linecap="round"/>
  <line x1="260" y1="440" x2="300" y2="510" stroke="#F44336" stroke-width="6" stroke-linecap="round"/>
  <!-- warning sparks -->
  <text x="120" y="260" font-family="Arial Black,sans-serif" font-size="40" fill="#FF6F00">!</text>
  <text x="320" y="250" font-family="Arial Black,sans-serif" font-size="40" fill="#FF6F00">!</text>
  <rect x="0" y="550" width="800" height="50" fill="#B71C1C" opacity="0.9"/>
  <text x="400" y="582" font-family="Arial,sans-serif" font-size="22" fill="white" text-anchor="middle" font-weight="bold">0:06-0:09 · SCALE CRASHING DOWN</text>

</svg>