<?xml version="1.0" encoding="UTF-8"?>
<svg xmlns="http://www.w3.org/2000/svg" width="800" height="600" viewBox="0 0 800 600">
  <rect width="800" height="600" fill="#F0F4FF"/>
  
  <rect x="0" y="0" width="800" height="600" fill="#E8F5E9"/>
  <!-- ribbon of dollar bills in S curve -->
  <!-- bill 1 -->
  <rect x="30"  y="460" width="130" height="65" rx="8" fill="#4CAF50" stroke="#2E7D32" stroke-width="3" transform="rotate(-5,95,492)"/>
  <text x="95"  y="498" font-family="Arial Black,sans-serif" font-size="22" fill="#1B5E20" text-anchor="middle" transform="rotate(-5,95,498)">$100</text>
  <!-- bill 2 -->
  <rect x="120" y="390" width="130" height="65" rx="8" fill="#66BB6A" stroke="#388E3C" stroke-width="3" transform="rotate(10,185,422)"/>
  <text x="185" y="428" font-family="Arial Black,sans-serif" font-size="22" fill="#1B5E20" text-anchor="middle" transform="rotate(10,185,428)">$100</text>
  <!-- bill 3 -->
  <rect x="230" y="320" width="130" height="65" rx="8" fill="#4CAF50" stroke="#2E7D32" stroke-width="3" transform="rotate(-15,295,352)"/>
  <text x="295" y="358" font-family="Arial Black,sans-serif" font-size="22" fill="#1B5E20" text-anchor="middle" transform="rotate(-15,295,358)">$100</text>
  <!-- bill 4 -->
  <rect x="310" y="240" width="130" height="65" rx="8" fill="#81C784" stroke="#43A047" stroke-width="3" transform="rotate(5,375,272)"/>
  <text x="375" y="278" font-family="Arial Black,sans-serif" font-size="22" fill="#1B5E20" text-anchor="middle" transform="rotate(5,375,278)">$50</text>
  <!-- bill 5 -->
  <rect x="410" y="170" width="130" height="65" rx="8" fill="#4CAF50" stroke="#2E7D32" stroke-width="3" transform="rotate(-20,475,202)"/>
  <text x="475" y="208" font-family="Arial Black,sans-serif" font-size="22" fill="#1B5E20" text-anchor="middle" transform="rotate(-20,475,208)">$100</text>
  <!-- bill 6 -->
  <rect x="530" y="120" width="130" height="65" rx="8" fill="#A5D6A7" stroke="#4CAF50" stroke-width="3" transform="rotate(15,595,152)"/>
  <text x="595" y="158" font-family="Arial Black,sans-serif" font-size="22" fill="#1B5E20" text-anchor="middle" transform="rotate(15,595,158)">$20</text>
  <!-- bill 7 -->
  <rect x="610" y="50"  width="130" height="65" rx="8" fill="#4CAF50" stroke="#2E7D32" stroke-width="3" transform="rotate(-8,675,82)"/>
  <text x="675" y="88"  font-family="Arial Black,sans-serif" font-size="22" fill="#1B5E20" text-anchor="middle" transform="rotate(-8,675,88)">$100</text>
  <!-- wind/motion lines -->
  <path d="M 20 500 Q 200 350 400 280 Q 550 220 760 80" fill="none" stroke="#43A047" stroke-width="4" stroke-dasharray="20,12" opacity="0.5"/>
  <path d="M 40 510 Q 220 360 420 290 Q 570 230 780 90" fill="none" stroke="#66BB6A" stroke-width="3" stroke-dasharray="15,10" opacity="0.4"/>
  <!-- speed lines -->
  <line x1="680" y1="40"  x2="750" y2="20"  stroke="#43A047" stroke-width="5" stroke-linecap="round"/>
  <line x1="670" y1="60"  x2="760" y2="50"  stroke="#43A047" stroke-width="4" stroke-linecap="round"/>
  <line x1="660" y1="80"  x2="755" y2="80"  stroke="#43A047" stroke-width="3" stroke-linecap="round"/>
  <rect x="0" y="550" width="800" height="50" fill="#1A237E" opacity="0.85"/>
  <text x="400" y="582" font-family="Arial,sans-serif" font-size="22" fill="white" text-anchor="middle" font-weight="bold">0:45-0:48 · FLYING MONEY RIBBON</text>

</svg>