<?xml version="1.0" encoding="UTF-8"?>
<svg xmlns="http://www.w3.org/2000/svg" width="800" height="600" viewBox="0 0 800 600">
  <rect width="800" height="600" fill="#F0F4FF"/>
  
  <rect x="0" y="0" width="800" height="600" fill="#E3F2FD"/>
  <!-- sky -->
  <rect x="0" y="0" width="800" height="460" fill="#87CEEB"/>
  <!-- sun -->
  <circle cx="680" cy="110" r="60" fill="#FFD600"/>
  <!-- sand -->
  <ellipse cx="400" cy="490" rx="400" ry="100" fill="#F9D682"/>
  <rect x="0" y="470" width="800" height="130" fill="#F9D682"/>
  <!-- palm tree trunk -->
  <path d="M 560 470 Q 570 350 600 240" stroke="#795548" stroke-width="22" fill="none" stroke-linecap="round"/>
  <!-- palm leaves -->
  <ellipse cx="600" cy="200" rx="80" ry="22" fill="#2E7D32" transform="rotate(-30,600,200)"/>
  <ellipse cx="600" cy="200" rx="80" ry="22" fill="#388E3C" transform="rotate(20,600,200)"/>
  <ellipse cx="600" cy="200" rx="80" ry="22" fill="#2E7D32" transform="rotate(70,600,200)"/>
  <ellipse cx="600" cy="200" rx="70" ry="20" fill="#43A047" transform="rotate(-80,600,200)"/>
  <ellipse cx="600" cy="200" rx="75" ry="20" fill="#388E3C" transform="rotate(130,600,200)"/>
  <!-- coconuts -->
  <circle cx="612" cy="230" r="14" fill="#795548"/>
  <circle cx="592" cy="238" r="12" fill="#6D4C41"/>
  <!-- SUITCASE -->
  <rect x="140" y="350" width="300" height="200" rx="20" fill="#1565C0" stroke="#0D47A1" stroke-width="8"/>
  <!-- suitcase handle -->
  <rect x="245" y="320" width="90" height="40" rx="12" fill="none" stroke="#0D47A1" stroke-width="10"/>
  <!-- suitcase clasp -->
  <rect x="272" y="444" width="56" height="20" rx="6" fill="#FFD600" stroke="#F9A825" stroke-width="3"/>
  <!-- suitcase straps -->
  <rect x="140" y="430" width="300" height="16" rx="6" fill="#0D47A1"/>
  <rect x="277" y="350" width="16" height="200" rx="6" fill="#0D47A1"/>
  <!-- clothes sticking out (open lid) -->
  <rect x="150" y="330" width="280" height="30" rx="8" fill="#E53935"/>
  <!-- shirt sticking out -->
  <ellipse cx="220" cy="345" rx="35" ry="20" fill="#F44336"/>
  <ellipse cx="320" cy="340" rx="30" ry="18" fill="#FF8A65"/>
  <ellipse cx="390" cy="348" rx="28" ry="16" fill="#FFEB3B"/>
  <!-- suitcase wheels -->
  <circle cx="175" cy="545" r="18" fill="#37474F"/>
  <circle cx="405" cy="545" r="18" fill="#37474F"/>
  <circle cx="175" cy="545" r="8"  fill="#546E7A"/>
  <circle cx="405" cy="545" r="8"  fill="#546E7A"/>
  <rect x="0" y="550" width="800" height="50" fill="#1A237E" opacity="0.85"/>
  <text x="400" y="582" font-family="Arial,sans-serif" font-size="22" fill="white" text-anchor="middle" font-weight="bold">0:39-0:42 · PACKED &amp; READY</text>

</svg>