<?xml version="1.0" encoding="UTF-8"?>
<svg xmlns="http://www.w3.org/2000/svg" width="800" height="600" viewBox="0 0 800 600">
  <rect width="800" height="600" fill="#F0F4FF"/>
  
  <rect x="0" y="0" width="800" height="600" fill="#263238"/>
  <!-- glow from inside vault -->
  <ellipse cx="400" cy="300" rx="220" ry="240" fill="#FFD600" opacity="0.25"/>
  <ellipse cx="400" cy="300" rx="160" ry="180" fill="#FFD600" opacity="0.35"/>
  <!-- vault frame -->
  <rect x="60" y="40" width="680" height="520" rx="12" fill="#37474F" stroke="#546E7A" stroke-width="14"/>
  <!-- left door -->
  <rect x="74" y="54" width="306" height="492" rx="10" fill="#455A64"/>
  <!-- right door -->
  <rect x="420" y="54" width="306" height="492" rx="10" fill="#455A64"/>
  <!-- door opening gap (light coming through) -->
  <rect x="360" y="54" width="80" height="492" fill="#FFD600" opacity="0.7"/>
  <rect x="380" y="54" width="40" height="492" fill="white" opacity="0.8"/>
  <!-- left door details -->
  <circle cx="200" cy="200" r="70" fill="none" stroke="#78909C" stroke-width="12"/>
  <circle cx="200" cy="200" r="50" fill="#37474F" stroke="#90A4AE" stroke-width="6"/>
  <line x1="235.0" y1="200.0" x2="255.0" y2="200.0" stroke="#90A4AE" stroke-width="8" stroke-linecap="round"/>
  <line x1="224.7" y1="224.7" x2="238.9" y2="238.9" stroke="#90A4AE" stroke-width="8" stroke-linecap="round"/>
  <line x1="200.0" y1="235.0" x2="200.0" y2="255.0" stroke="#90A4AE" stroke-width="8" stroke-linecap="round"/>
  <line x1="175.3" y1="224.7" x2="161.1" y2="238.9" stroke="#90A4AE" stroke-width="8" stroke-linecap="round"/>
  <line x1="165.0" y1="200.0" x2="145.0" y2="200.0" stroke="#90A4AE" stroke-width="8" stroke-linecap="round"/>
  <line x1="175.3" y1="175.3" x2="161.1" y2="161.1" stroke="#90A4AE" stroke-width="8" stroke-linecap="round"/>
  <line x1="200.0" y1="165.0" x2="200.0" y2="145.0" stroke="#90A4AE" stroke-width="8" stroke-linecap="round"/>
  <line x1="224.7" y1="175.3" x2="238.9" y2="161.1" stroke="#90A4AE" stroke-width="8" stroke-linecap="round"/>
  <circle cx="200" cy="200" r="14" fill="#78909C"/>
  <!-- left door bolts -->
  <circle cx="110" cy="130" r="16" fill="#546E7A" stroke="#78909C" stroke-width="4"/>
  <circle cx="110" cy="300" r="16" fill="#546E7A" stroke="#78909C" stroke-width="4"/>
  <circle cx="110" cy="470" r="16" fill="#546E7A" stroke="#78909C" stroke-width="4"/>
  <circle cx="360" cy="130" r="16" fill="#546E7A" stroke="#78909C" stroke-width="4"/>
  <circle cx="360" cy="470" r="16" fill="#546E7A" stroke="#78909C" stroke-width="4"/>
  <!-- right door details mirror -->
  <circle cx="600" cy="200" r="70" fill="none" stroke="#78909C" stroke-width="12"/>
  <circle cx="600" cy="200" r="50" fill="#37474F" stroke="#90A4AE" stroke-width="6"/>
  <circle cx="600" cy="200" r="14" fill="#78909C"/>
  <circle cx="690" cy="130" r="16" fill="#546E7A" stroke="#78909C" stroke-width="4"/>
  <circle cx="690" cy="300" r="16" fill="#546E7A" stroke="#78909C" stroke-width="4"/>
  <circle cx="690" cy="470" r="16" fill="#546E7A" stroke="#78909C" stroke-width="4"/>
  <circle cx="440" cy="130" r="16" fill="#546E7A" stroke="#78909C" stroke-width="4"/>
  <circle cx="440" cy="470" r="16" fill="#546E7A" stroke="#78909C" stroke-width="4"/>
  <!-- vault door handle bar -->
  <rect x="326" y="270" width="30" height="120" rx="10" fill="#78909C"/>
  <rect x="444" y="270" width="30" height="120" rx="10" fill="#78909C"/>
  <rect x="0" y="550" width="800" height="50" fill="#1A237E" opacity="0.85"/>
  <text x="400" y="582" font-family="Arial,sans-serif" font-size="22" fill="white" text-anchor="middle" font-weight="bold">0:42-0:45 · VAULT OPENING</text>

</svg>