<?xml version="1.0" encoding="UTF-8"?>
<svg xmlns="http://www.w3.org/2000/svg" width="800" height="600" viewBox="0 0 800 600">
  <rect width="800" height="600" fill="#F0F4FF"/>
  
  <rect x="0" y="0" width="800" height="600" fill="#ECEFF1"/>
  <!-- wall -->
  <rect x="0" y="0" width="800" height="600" fill="#CFD8DC"/>
  <!-- clock face -->
  <circle cx="400" cy="300" r="220" fill="#37474F" stroke="#263238" stroke-width="14"/>
  <circle cx="400" cy="300" r="205" fill="#FAFAFA"/>
  <!-- hour marks -->
  <line x1="400.0" y1="115.0" x2="400.0" y2="135.0" stroke="#37474F" stroke-width="8" stroke-linecap="round"/>
  <line x1="492.5" y1="139.8" x2="482.5" y2="157.1" stroke="#37474F" stroke-width="4" stroke-linecap="round"/>
  <line x1="560.2" y1="207.5" x2="542.9" y2="217.5" stroke="#37474F" stroke-width="4" stroke-linecap="round"/>
  <line x1="585.0" y1="300.0" x2="565.0" y2="300.0" stroke="#37474F" stroke-width="8" stroke-linecap="round"/>
  <line x1="560.2" y1="392.5" x2="542.9" y2="382.5" stroke="#37474F" stroke-width="4" stroke-linecap="round"/>
  <line x1="492.5" y1="460.2" x2="482.5" y2="442.9" stroke="#37474F" stroke-width="4" stroke-linecap="round"/>
  <line x1="400.0" y1="485.0" x2="400.0" y2="465.0" stroke="#37474F" stroke-width="8" stroke-linecap="round"/>
  <line x1="307.5" y1="460.2" x2="317.5" y2="442.9" stroke="#37474F" stroke-width="4" stroke-linecap="round"/>
  <line x1="239.8" y1="392.5" x2="257.1" y2="382.5" stroke="#37474F" stroke-width="4" stroke-linecap="round"/>
  <line x1="215.0" y1="300.0" x2="235.0" y2="300.0" stroke="#37474F" stroke-width="8" stroke-linecap="round"/>
  <line x1="239.8" y1="207.5" x2="257.1" y2="217.5" stroke="#37474F" stroke-width="4" stroke-linecap="round"/>
  <line x1="307.5" y1="139.8" x2="317.5" y2="157.1" stroke="#37474F" stroke-width="4" stroke-linecap="round"/>
  <!-- hour numbers -->
  <text x="400" y="140" font-family="Arial Black,sans-serif" font-size="28" fill="#37474F" text-anchor="middle">12</text>
  <text x="580" y="310" font-family="Arial Black,sans-serif" font-size="28" fill="#37474F" text-anchor="middle">3</text>
  <text x="400" y="480" font-family="Arial Black,sans-serif" font-size="28" fill="#37474F" text-anchor="middle">6</text>
  <text x="222" y="310" font-family="Arial Black,sans-serif" font-size="28" fill="#37474F" text-anchor="middle">9</text>
  <!-- minute hand (pointing to ~37) -->
  <line x1="400" y1="300" x2="400" y2="130" stroke="#1565C0" stroke-width="10" stroke-linecap="round"/>
  <!-- hour hand (pointing to ~10) -->
  <line x1="400" y1="300" x2="278" y2="190" stroke="#212121" stroke-width="14" stroke-linecap="round"/>
  <!-- second hand -->
  <line x1="400" y1="300" x2="490" y2="165" stroke="#F44336" stroke-width="4" stroke-linecap="round"/>
  <!-- center -->
  <circle cx="400" cy="300" r="14" fill="#37474F"/>
  <circle cx="400" cy="300" r="7"  fill="#F44336"/>
  <!-- decorative gears (top-right) -->
  <circle cx="660" cy="120" r="55" fill="none" stroke="#90A4AE" stroke-width="12"/>
  <circle cx="660" cy="120" r="38" fill="#B0BEC5"/>
  <circle cx="660" cy="120" r="14" fill="#78909C"/>
  <rect x="707.0" y="112.0" width="16" height="16" rx="3" fill="#78909C" transform="rotate(0,715.0,120.0)"/>
  <rect x="690.9" y="150.9" width="16" height="16" rx="3" fill="#78909C" transform="rotate(45,698.9,158.9)"/>
  <rect x="652.0" y="167.0" width="16" height="16" rx="3" fill="#78909C" transform="rotate(90,660.0,175.0)"/>
  <rect x="613.1" y="150.9" width="16" height="16" rx="3" fill="#78909C" transform="rotate(135,621.1,158.9)"/>
  <rect x="597.0" y="112.0" width="16" height="16" rx="3" fill="#78909C" transform="rotate(180,605.0,120.0)"/>
  <rect x="613.1" y="73.1" width="16" height="16" rx="3" fill="#78909C" transform="rotate(225,621.1,81.1)"/>
  <rect x="652.0" y="57.0" width="16" height="16" rx="3" fill="#78909C" transform="rotate(270,660.0,65.0)"/>
  <rect x="690.9" y="73.1" width="16" height="16" rx="3" fill="#78909C" transform="rotate(315,698.9,81.1)"/>
  <!-- small gear -->
  <circle cx="720" cy="175" r="30" fill="none" stroke="#90A4AE" stroke-width="8"/>
  <circle cx="720" cy="175" r="18" fill="#B0BEC5"/>
  <circle cx="720" cy="175" r="8"  fill="#78909C"/>
  <rect x="0" y="550" width="800" height="50" fill="#1A237E" opacity="0.85"/>
  <text x="400" y="582" font-family="Arial,sans-serif" font-size="22" fill="white" text-anchor="middle" font-weight="bold">0:24-0:27 · WALL CLOCK WITH GEARS</text>

</svg>