<?xml version="1.0" encoding="UTF-8"?>
<svg xmlns="http://www.w3.org/2000/svg" width="800" height="600" viewBox="0 0 800 600">
  <rect width="800" height="600" fill="#F0F4FF"/>
  
  <rect x="0" y="470" width="800" height="130" fill="#4CAF50"/>
  <!-- sky gradient -->
  <rect x="0" y="0" width="800" height="470" fill="#E3F2FD"/>
  <!-- clouds -->
  <ellipse cx="150" cy="100" rx="60" ry="30" fill="white"/>
  <ellipse cx="200" cy="90" rx="50" ry="28" fill="white"/>
  <ellipse cx="100" cy="95" rx="45" ry="25" fill="white"/>
  <ellipse cx="650" cy="80" rx="55" ry="28" fill="white"/>
  <ellipse cx="700" cy="70" rx="45" ry="24" fill="white"/>
  <!-- ROCKET (massive) -->
  <!-- flame -->
  <ellipse cx="510" cy="480" rx="40" ry="25" fill="#FF6F00"/>
  <ellipse cx="510" cy="460" rx="28" ry="18" fill="#FFEB3B"/>
  <!-- rocket body -->
  <rect x="460" y="160" width="100" height="300" rx="20" fill="#E53935"/>
  <!-- rocket nose -->
  <polygon points="460,160 510,60 560,160" fill="#B71C1C"/>
  <!-- windows -->
  <circle cx="510" cy="230" r="28" fill="#90CAF9" stroke="white" stroke-width="5"/>
  <circle cx="510" cy="310" r="20" fill="#90CAF9" stroke="white" stroke-width="4"/>
  <!-- fins -->
  <polygon points="460,400 420,470 460,440" fill="#C62828"/>
  <polygon points="560,400 600,470 560,440" fill="#C62828"/>
  <!-- TINY BICYCLE (left) -->
  <circle cx="130" cy="450" r="28" fill="none" stroke="#1565C0" stroke-width="7"/>
  <circle cx="200" cy="450" r="28" fill="none" stroke="#1565C0" stroke-width="7"/>
  <line x1="130" y1="450" x2="165" y2="400" stroke="#1565C0" stroke-width="7" stroke-linecap="round"/>
  <line x1="165" y1="400" x2="200" y2="450" stroke="#1565C0" stroke-width="7" stroke-linecap="round"/>
  <line x1="165" y1="400" x2="175" y2="420" stroke="#1565C0" stroke-width="5" stroke-linecap="round"/>
  <line x1="140" y1="415" x2="200" y2="415" stroke="#1565C0" stroke-width="5" stroke-linecap="round"/>
  <line x1="175" y1="415" x2="175" y2="400" stroke="#1565C0" stroke-width="5" stroke-linecap="round"/>
  <!-- VS label -->
  <circle cx="330" cy="350" r="36" fill="#FF6F00"/>
  <text x="330" y="362" font-family="Arial Black,sans-serif" font-size="26" fill="white" text-anchor="middle" font-weight="900">VS</text>
  <rect x="0" y="550" width="800" height="50" fill="#1A237E" opacity="0.85"/>
  <text x="400" y="582" font-family="Arial,sans-serif" font-size="22" fill="white" text-anchor="middle" font-weight="bold">0:09-0:12 · BICYCLE vs ROCKET</text>

</svg>