<?xml version="1.0" encoding="UTF-8"?>
<svg xmlns="http://www.w3.org/2000/svg" width="800" height="600" viewBox="0 0 800 600">
  <rect width="800" height="600" fill="#F0F4FF"/>
  
  <rect x="0" y="0" width="800" height="600" fill="#E8EAF6"/>
  <!-- desk surface -->
  <rect x="0" y="430" width="800" height="170" fill="#795548"/>
  <rect x="0" y="428" width="800" height="18" fill="#5D4037"/>
  <!-- calendar base/stand -->
  <rect x="220" y="400" width="360" height="30" rx="8" fill="#37474F"/>
  <rect x="240" y="370" width="320" height="40" rx="6" fill="#455A64"/>
  <!-- calendar back pages (stack effect) -->
  <rect x="230" y="100" width="340" height="290" rx="12" fill="#CFD8DC" stroke="#90A4AE" stroke-width="3" transform="rotate(3,400,245)"/>
  <rect x="230" y="100" width="340" height="290" rx="12" fill="#ECEFF1" stroke="#B0BEC5" stroke-width="3" transform="rotate(1.5,400,245)"/>
  <!-- main calendar page -->
  <rect x="225" y="95" width="350" height="295" rx="14" fill="white" stroke="#BDBDBD" stroke-width="6"/>
  <!-- calendar header -->
  <rect x="225" y="95" width="350" height="75" rx="14" fill="#1565C0"/>
  <rect x="225" y="143" width="350" height="27" fill="#1565C0"/>
  <text x="400" y="148" font-family="Arial Black,sans-serif" font-size="30" fill="white" text-anchor="middle">JUNE</text>
  <!-- ring binders top -->
  <circle cx="310" cy="98" r="14" fill="#37474F"/>
  <circle cx="400" cy="98" r="14" fill="#37474F"/>
  <circle cx="490" cy="98" r="14" fill="#37474F"/>
  <circle cx="310" cy="98" r="8"  fill="#546E7A"/>
  <circle cx="400" cy="98" r="8"  fill="#546E7A"/>
  <circle cx="490" cy="98" r="8"  fill="#546E7A"/>
  <!-- calendar grid -->
  <text x="258" y="202" font-family="Arial,sans-serif" font-size="16" fill="#757575" text-anchor="middle" font-weight="bold">M</text>
  <text x="308" y="202" font-family="Arial,sans-serif" font-size="16" fill="#757575" text-anchor="middle" font-weight="bold">T</text>
  <text x="358" y="202" font-family="Arial,sans-serif" font-size="16" fill="#757575" text-anchor="middle" font-weight="bold">W</text>
  <text x="408" y="202" font-family="Arial,sans-serif" font-size="16" fill="#757575" text-anchor="middle" font-weight="bold">T</text>
  <text x="458" y="202" font-family="Arial,sans-serif" font-size="16" fill="#757575" text-anchor="middle" font-weight="bold">F</text>
  <text x="508" y="202" font-family="Arial,sans-serif" font-size="16" fill="#757575" text-anchor="middle" font-weight="bold">S</text>
  <text x="558" y="202" font-family="Arial,sans-serif" font-size="16" fill="#757575" text-anchor="middle" font-weight="bold">S</text>
  <text x="308" y="230" font-family="Arial,sans-serif" font-size="20" fill="#424242" text-anchor="middle">1</text>
  <text x="358" y="230" font-family="Arial,sans-serif" font-size="20" fill="#424242" text-anchor="middle">2</text>
  <text x="408" y="230" font-family="Arial,sans-serif" font-size="20" fill="#424242" text-anchor="middle">3</text>
  <text x="458" y="230" font-family="Arial,sans-serif" font-size="20" fill="#424242" text-anchor="middle">4</text>
  <text x="508" y="230" font-family="Arial,sans-serif" font-size="20" fill="#424242" text-anchor="middle">5</text>
  <text x="558" y="230" font-family="Arial,sans-serif" font-size="20" fill="#424242" text-anchor="middle">6</text>
  <text x="258" y="272" font-family="Arial,sans-serif" font-size="20" fill="#424242" text-anchor="middle">7</text>
  <text x="308" y="272" font-family="Arial,sans-serif" font-size="20" fill="#424242" text-anchor="middle">8</text>
  <text x="358" y="272" font-family="Arial,sans-serif" font-size="20" fill="#424242" text-anchor="middle">9</text>
  <text x="408" y="272" font-family="Arial,sans-serif" font-size="20" fill="#424242" text-anchor="middle">10</text>
  <text x="458" y="272" font-family="Arial,sans-serif" font-size="20" fill="#424242" text-anchor="middle">11</text>
  <text x="508" y="272" font-family="Arial,sans-serif" font-size="20" fill="#424242" text-anchor="middle">12</text>
  <text x="558" y="272" font-family="Arial,sans-serif" font-size="20" fill="#424242" text-anchor="middle">13</text>
  <text x="258" y="314" font-family="Arial,sans-serif" font-size="20" fill="#424242" text-anchor="middle">14</text>
  <text x="308" y="314" font-family="Arial,sans-serif" font-size="20" fill="#424242" text-anchor="middle">15</text>
  <text x="358" y="314" font-family="Arial,sans-serif" font-size="20" fill="#424242" text-anchor="middle">16</text>
  <text x="408" y="314" font-family="Arial,sans-serif" font-size="20" fill="#424242" text-anchor="middle">17</text>
  <text x="458" y="314" font-family="Arial,sans-serif" font-size="20" fill="#424242" text-anchor="middle">18</text>
  <text x="508" y="314" font-family="Arial,sans-serif" font-size="20" fill="#424242" text-anchor="middle">19</text>
  <text x="558" y="314" font-family="Arial,sans-serif" font-size="20" fill="#424242" text-anchor="middle">20</text>
  <text x="258" y="356" font-family="Arial,sans-serif" font-size="20" fill="#424242" text-anchor="middle">21</text>
  <text x="308" y="356" font-family="Arial,sans-serif" font-size="20" fill="#424242" text-anchor="middle">22</text>
  <text x="358" y="356" font-family="Arial,sans-serif" font-size="20" fill="#424242" text-anchor="middle">23</text>
  <text x="408" y="356" font-family="Arial,sans-serif" font-size="20" fill="#424242" text-anchor="middle">24</text>
  <text x="458" y="356" font-family="Arial,sans-serif" font-size="20" fill="#424242" text-anchor="middle">25</text>
  <text x="508" y="356" font-family="Arial,sans-serif" font-size="20" fill="#424242" text-anchor="middle">26</text>
  <text x="558" y="356" font-family="Arial,sans-serif" font-size="20" fill="#424242" text-anchor="middle">27</text>
  <text x="258" y="398" font-family="Arial,sans-serif" font-size="20" fill="#424242" text-anchor="middle">28</text>
  <text x="308" y="398" font-family="Arial,sans-serif" font-size="20" fill="#424242" text-anchor="middle">29</text>
  <text x="358" y="398" font-family="Arial,sans-serif" font-size="20" fill="#424242" text-anchor="middle">30</text>
  <!-- flying/flipping pages (motion blur) -->
  <rect x="160" y="80" width="300" height="260" rx="10" fill="#E3F2FD" opacity="0.6" stroke="#90A4AE" stroke-width="3" transform="rotate(-20,310,210)"/>
  <rect x="120" y="60" width="280" height="240" rx="10" fill="#BBDEFB" opacity="0.4" stroke="#90CAF9" stroke-width="2" transform="rotate(-35,260,180)"/>
  <!-- speed lines -->
  <line x1="130" y1="130" x2="60"  y2="100" stroke="#90A4AE" stroke-width="4" stroke-linecap="round" opacity="0.7"/>
  <line x1="120" y1="160" x2="50"  y2="145" stroke="#90A4AE" stroke-width="3" stroke-linecap="round" opacity="0.6"/>
  <line x1="140" y1="195" x2="55"  y2="195" stroke="#90A4AE" stroke-width="3" stroke-linecap="round" opacity="0.5"/>
  <rect x="0" y="550" width="800" height="50" fill="#1A237E" opacity="0.85"/>
  <text x="400" y="582" font-family="Arial,sans-serif" font-size="22" fill="white" text-anchor="middle" font-weight="bold">0:54-0:57 · CALENDAR FLIPPING</text>

</svg>