<?xml version="1.0" encoding="UTF-8"?>
<svg xmlns="http://www.w3.org/2000/svg" width="800" height="600" viewBox="0 0 800 600">
  <rect width="800" height="600" fill="#F0F4FF"/>
  
  <!-- ground -->
  <rect x="0" y="480" width="800" height="120" fill="#4CAF50"/>
  <!-- glow behind dollar -->
  <circle cx="550" cy="240" r="160" fill="#FFF9C4" opacity="0.7"/>
  <circle cx="550" cy="240" r="120" fill="#FFEB3B" opacity="0.5"/>
  <!-- dollar sign body -->
  <circle cx="550" cy="240" r="110" fill="#FFD600" stroke="#F9A825" stroke-width="10"/>
  <text x="550" y="290" font-family="Arial Black,sans-serif" font-size="160" fill="#F57F17" text-anchor="middle" font-weight="900">$</text>
  <!-- sparkles -->
  <circle cx="440" cy="120" r="10" fill="#FFEB3B"/>
  <circle cx="670" cy="130" r="8"  fill="#FFEB3B"/>
  <circle cx="660" cy="360" r="12" fill="#FFEB3B"/>
  <!-- person body -->
  <rect x="160" y="320" width="80" height="140" rx="10" fill="#1565C0"/>
  <!-- person head -->
  <circle cx="200" cy="290" r="50" fill="#FFB74D"/>
  <!-- shocked mouth -->
  <ellipse cx="200" cy="310" rx="18" ry="24" fill="#B71C1C"/>
  <!-- wide eyes -->
  <circle cx="182" cy="275" r="12" fill="white"/>
  <circle cx="218" cy="275" r="12" fill="white"/>
  <circle cx="185" cy="278" r="6" fill="#1A237E"/>
  <circle cx="221" cy="278" r="6" fill="#1A237E"/>
  <!-- raised hands -->
  <rect x="100" y="340" width="60" height="18" rx="9" fill="#1565C0"/>
  <rect x="240" y="330" width="60" height="18" rx="9" fill="#1565C0"/>
  <!-- legs -->
  <rect x="165" y="455" width="24" height="30" rx="6" fill="#0D47A1"/>
  <rect x="211" y="455" width="24" height="30" rx="6" fill="#0D47A1"/>
  <!-- shoes -->
  <rect x="155" y="480" width="40" height="15" rx="7" fill="#212121"/>
  <rect x="205" y="480" width="40" height="15" rx="7" fill="#212121"/>
  <!-- label -->
  <rect x="0" y="550" width="800" height="50" fill="#1A237E" opacity="0.85"/>
  <text x="400" y="582" font-family="Arial,sans-serif" font-size="22" fill="white" text-anchor="middle" font-weight="bold">0:00-0:03 · SHOCKED BY THE DOLLAR</text>

</svg>