<?xml version="1.0" encoding="UTF-8"?>
<svg xmlns="http://www.w3.org/2000/svg" width="800" height="600" viewBox="0 0 800 600">
  <rect width="800" height="600" fill="#F0F4FF"/>
  
  <rect x="0" y="0" width="800" height="600" fill="#1A237E"/>
  <!-- monitor -->
  <rect x="80" y="80" width="640" height="400" rx="20" fill="#263238"/>
  <rect x="80" y="80" width="640" height="400" rx="20" fill="none" stroke="#37474F" stroke-width="12"/>
  <!-- screen inner -->
  <rect x="100" y="100" width="600" height="360" rx="10" fill="#0D0D0D"/>
  <!-- glow red -->
  <rect x="100" y="100" width="600" height="360" rx="10" fill="#B71C1C" opacity="0.12"/>
  <!-- three zeros with glow -->
  <text x="400" y="320" font-family="Arial Black,Courier,monospace" font-size="200" fill="#B71C1C" text-anchor="middle" opacity="0.3">000</text>
  <text x="400" y="320" font-family="Arial Black,Courier,monospace" font-size="200" fill="#F44336" text-anchor="middle" opacity="0.6">000</text>
  <text x="400" y="320" font-family="Arial Black,Courier,monospace" font-size="190" fill="#FF5252" text-anchor="middle">000</text>
  <!-- scanlines effect -->
  <line x1="100" y1="130" x2="700" y2="130" stroke="#F44336" stroke-width="1" opacity="0.2"/>
  <line x1="100" y1="160" x2="700" y2="160" stroke="#F44336" stroke-width="1" opacity="0.2"/>
  <line x1="100" y1="190" x2="700" y2="190" stroke="#F44336" stroke-width="1" opacity="0.2"/>
  <!-- monitor stand -->
  <rect x="360" y="480" width="80" height="50" rx="6" fill="#37474F"/>
  <rect x="300" y="525" width="200" height="20" rx="8" fill="#546E7A"/>
  <!-- status bar -->
  <text x="400" y="155" font-family="monospace" font-size="18" fill="#F44336" text-anchor="middle">⚠ ACCOUNT BALANCE ⚠</text>
  <rect x="0" y="550" width="800" height="50" fill="#B71C1C" opacity="0.9"/>
  <text x="400" y="582" font-family="Arial,sans-serif" font-size="22" fill="white" text-anchor="middle" font-weight="bold">0:12-0:15 · ZERO BALANCE</text>

</svg>